<?xml version="1.0" encoding="utf-8"?>
<!-- Generator: Adobe Illustrator 18.0.0, SVG Export Plug-In . SVG Version: 6.00 Build 0)  -->
<!DOCTYPE svg PUBLIC "-//W3C//DTD SVG 1.1//EN" "http://www.w3.org/Graphics/SVG/1.1/DTD/svg11.dtd">
<svg version="1.1" id="Layer_1" xmlns="http://www.w3.org/2000/svg" xmlns:xlink="http://www.w3.org/1999/xlink" x="0px" y="0px"
	 viewBox="0 0 432 432" enable-background="new 0 0 432 432" xml:space="preserve">
<g>
	<path fill="#00954D" d="M98.9,179.4l-35.1,86.4H52.3l42.4-98.6h8.9l24.8,57.6h-11.7L98.9,179.4z"/>
	<path fill="#00954D" d="M196,176.1h-23v-9h56.2v9h-23v48.7H196V176.1z"/>
	<path fill="#39B54A" d="M286.1,167.2h38.2v9h-27.9v14.7h26.5v8.6h-26.5v16.3h29.4v9.1h-39.6V167.2z"/>
	<path fill="#39B54A" d="M372.5,181.4c-2.9-4-8.1-5.7-12.5-5.7c-11.3,0-19,8.8-19,20.1c0,11.9,7.3,20.2,18.6,20.2
		c5.9,0,10.5-2.6,13.3-6.4l7.8,5.5c-4.8,6-11.9,9.6-21.2,9.6c-17.1,0-29.3-11.9-29.3-29c0-17.6,12.9-28.7,29.8-28.7
		c7.1,0,15.6,2.6,19.9,8.4L372.5,181.4z"/>
	<path fill="#00954D" d="M134.6,167.2h13.6l26.8,43.1h0.2v-24.4h10.3v38.9h-13L145,180.3h-0.2v44.5h-10.3V167.2z"/>
	<path fill="#39B54A" d="M256.1,189.9v8.1h11.5v15.3c-2.6,1.8-5.9,2.9-9.7,2.9c-11.3,0-18.6-8.3-18.6-20.2c0-11.3,7.7-20.1,19-20.1
		c4.3,0,9.4,1.6,12.2,5.4v-11.4c-3.9-1.7-8.3-2.5-12.2-2.5c-16.9,0-29.8,11.1-29.8,28.7c0,17.1,12.2,29,29.3,29
		c3.6,0,6.8-0.5,9.8-1.5c3.7-1.2,6.8-3.2,9.5-5.8v-3.6v-23.9H256.1z"/>
	<polyline fill="#00A651" points="83.5,236.8 380.8,236.8 380.8,230.7 	"/>
</g>
</svg>
